<?xml version="1.0" encoding="UTF-8"?>
<svg version="1.1" xmlns="http://www.w3.org/2000/svg" width="160" height="56">
<path d="M0 0 C2.9921875 1.41015625 2.9921875 1.41015625 5.875 3.0625 C6.84179688 3.61035156 7.80859375 4.15820312 8.8046875 4.72265625 C9.89136719 5.35494141 9.89136719 5.35494141 11 6 C11 7.32 11 8.64 11 10 C9.68 10.33 8.36 10.66 7 11 C7 11.66 7 12.32 7 13 C8.65 13.66 10.3 14.32 12 15 C10.50756513 19.1769976 8.12352101 20.37092168 4.25 22.3125 C2.71085937 23.11107422 2.71085937 23.11107422 1.140625 23.92578125 C-3.61343325 25.55185839 -6.52755094 24.69393487 -10.9921875 22.58984375 C-12.41917969 21.77193359 -12.41917969 21.77193359 -13.875 20.9375 C-14.84179688 20.38964844 -15.80859375 19.84179688 -16.8046875 19.27734375 C-17.52914063 18.85582031 -18.25359375 18.43429688 -19 18 C-19 16.68 -19 15.36 -19 14 C-17.68 13.67 -16.36 13.34 -15 13 C-15 12.34 -15 11.68 -15 11 C-16.32 10.67 -17.64 10.34 -19 10 C-19 9.34 -19 8.68 -19 8 C-15.55843982 8.43019502 -13.0526778 9.46060161 -10.0625 11.125 C-7.21961688 12.59453545 -6.11275125 13.00221081 -2.8125 12.9375 C0.10765955 11.96411348 2.41394816 10.65219979 5 9 C5.66 9 6.32 9 7 9 C7 8.34 7 7.68 7 7 C6.071875 6.71125 5.14375 6.4225 4.1875 6.125 C1 5 1 5 -2 3 C-5.41546894 3.36334776 -8.68637751 4.10787087 -12 5 C-7.92362866 -0.29928274 -6.66100975 -1.5488854 0 0 Z " fill="#080708" transform="translate(30,16)"/>
<path d="M0 0 C0.86625 0.495 1.7325 0.99 2.625 1.5 C6.23044474 3.10241989 8.11625955 3.48546756 12 3 C15.30101131 1.60075055 15.30101131 1.60075055 18 0 C18.33 0.66 18.66 1.32 19 2 C19.99 2.33 20.98 2.66 22 3 C22 3.66 22 4.32 22 5 C21.360625 5.103125 20.72125 5.20625 20.0625 5.3125 C19.0415625 5.6528125 19.0415625 5.6528125 18 6 C17.67 6.99 17.34 7.98 17 9 C13.27493045 11.02218061 10.18996198 11.35736388 6 11 C3.2265625 9.46875 3.2265625 9.46875 0.625 7.5 C-0.24898437 6.8503125 -1.12296875 6.200625 -2.0234375 5.53125 C-2.67570313 5.0259375 -3.32796875 4.520625 -4 4 C-2.68 3.34 -1.36 2.68 0 2 C0 1.34 0 0.68 0 0 Z " fill="#2A2A2A" transform="translate(17,28)"/>
<path d="M0 0 C3.68085383 0.69016009 5.40498953 1.8911657 8 4.5625 C8 5.5525 8 6.5425 8 7.5625 C5.13275314 6.98905063 4.1385485 6.7010485 2 4.5625 C-0.60280568 4.88291397 -0.60280568 4.88291397 -3 5.5625 C-3 8.8625 -3 12.1625 -3 15.5625 C-0.02934491 15.22022428 -0.02934491 15.22022428 3 14.5625 C3.33 13.9025 3.66 13.2425 4 12.5625 C5.32 12.5625 6.64 12.5625 8 12.5625 C7.13088303 15.31470373 6.5527839 17.1281698 4.25 18.9375 C1.07898515 19.81833746 -0.86069622 19.54353243 -4 18.5625 C-6.44754681 16.43699882 -7.72601984 14.82997832 -8.41796875 11.62890625 C-8.69886454 7.61285561 -8.25746902 5.92598567 -5.875 2.5625 C-3 0.5625 -3 0.5625 0 0 Z " fill="#070707" transform="translate(92,16.4375)"/>
<path d="M0 0 C1.32 0 2.64 0 4 0 C5.00399524 2.62353518 6.00334445 5.24867795 7 7.875 C7.28617188 8.62136719 7.57234375 9.36773437 7.8671875 10.13671875 C10 15.7734375 10 15.7734375 10 18 C8.68 18 7.36 18 6 18 C5.67 17.01 5.34 16.02 5 15 C3.02 15 1.04 15 -1 15 C-1.33 15.99 -1.66 16.98 -2 18 C-3.32 18 -4.64 18 -6 18 C-4.41039668 11.76559832 -2.72399099 5.83712355 0 0 Z M1 6 C0.67 7.65 0.34 9.3 0 11 C1.32 10.67 2.64 10.34 4 10 C3.34 8.68 2.68 7.36 2 6 C1.67 6 1.34 6 1 6 Z " fill="#070808" transform="translate(107,17)"/>
<path d="M0 0 C2.6768096 0.05286339 4.18684588 0.249722 6.6875 1.3125 C8.97498902 4.26717332 8.58169028 6.63658914 8.1875 10.25 C6.1875 12.25 6.1875 12.25 2.5625 12.375 C1.44875 12.33375 0.335 12.2925 -0.8125 12.25 C-0.8125 14.56 -0.8125 16.87 -0.8125 19.25 C-2.1325 18.92 -3.4525 18.59 -4.8125 18.25 C-4.83934312 15.43743719 -4.85926188 12.62512759 -4.875 9.8125 C-4.88337891 9.01005859 -4.89175781 8.20761719 -4.90039062 7.38085938 C-4.9090143 5.33704779 -4.8647815 3.29316098 -4.8125 1.25 C-3.8125 0.25 -3.8125 0.25 0 0 Z M-0.8125 3.25 C-0.8125 5.23 -0.8125 7.21 -0.8125 9.25 C0.8375 9.25 2.4875 9.25 4.1875 9.25 C4.56968767 7.59385343 4.90145102 5.92542976 5.1875 4.25 C4.12104885 2.95366379 4.12104885 2.95366379 1.625 3.1875 C0.820625 3.208125 0.01625 3.22875 -0.8125 3.25 Z " fill="#0A0A0A" transform="translate(138.8125,16.75)"/>
<path d="M0 0 C0.99 0.66 1.98 1.32 3 2 C3 2.99 3 3.98 3 5 C0.36 4.67 -2.28 4.34 -5 4 C-5.33 4.99 -5.66 5.98 -6 7 C-4.081875 7.4021875 -4.081875 7.4021875 -2.125 7.8125 C1.49675855 8.57190099 1.80051868 8.70077803 4 12 C3.64111965 14.96076291 3.15341979 15.84658021 1 18 C-1.09375 18.265625 -1.09375 18.265625 -3.5 18.25 C-4.2940625 18.25515625 -5.088125 18.2603125 -5.90625 18.265625 C-8 18 -8 18 -10 16 C-10 15.01 -10 14.02 -10 13 C-7.9554346 13.51114135 -5.91236597 14.02319724 -3.875 14.5625 C-1.99628047 15.07574321 -1.99628047 15.07574321 0 15 C-0.33 14.01 -0.66 13.02 -1 12 C-3.31104818 10.94952356 -5.64583651 9.94992562 -8 9 C-8.66 8.34 -9.32 7.68 -10 7 C-9.8125 4.5 -9.8125 4.5 -9 2 C-5.53001271 -0.31332486 -4.07490752 -0.33957563 0 0 Z " fill="#040304" transform="translate(64,17)"/>
<path d="M0 0 C9 0 9 0 11.5625 1.125 C13 3 13 3 13.4375 6 C13 9 13 9 11.9375 10.875 C8.99772876 12.58196395 6.32129197 12.18799766 3 12 C3 13.98 3 15.96 3 18 C2.01 18 1.02 18 0 18 C0 12.06 0 6.12 0 0 Z M3 3 C3 4.98 3 6.96 3 9 C4.98 9 6.96 9 9 9 C9.042721 7.33388095 9.04063832 5.66617115 9 4 C7.93354885 2.70366379 7.93354885 2.70366379 5.4375 2.9375 C4.633125 2.958125 3.82875 2.97875 3 3 Z " fill="#0C0B0B" transform="translate(119,17)"/>
<path d="M0 0 C3.96 0 7.92 0 12 0 C12 0.99 12 1.98 12 3 C9.03 3 6.06 3 3 3 C3 4.65 3 6.3 3 8 C5.64 8 8.28 8 11 8 C11 8.99 11 9.98 11 11 C8.36 11 5.72 11 3 11 C3.33 12.32 3.66 13.64 4 15 C6.64 15.33 9.28 15.66 12 16 C12 16.66 12 17.32 12 18 C8.04 18 4.08 18 0 18 C0 12.06 0 6.12 0 0 Z " fill="#080808" transform="translate(70,17)"/>
<path d="M0 0 C1.32 0 2.64 0 4 0 C5.79477439 3.81389558 6.37453719 6.78645663 6 11 C5.34 11.66 4.68 12.32 4 13 C2.68 13 1.36 13 0 13 C0 12.34 0 11.68 0 11 C0.99 10.67 1.98 10.34 3 10 C2.67 9.01 2.34 8.02 2 7 C1.67 7.66 1.34 8.32 1 9 C0.01 8.67 -0.98 8.34 -2 8 C-1.34 5.36 -0.68 2.72 0 0 Z " fill="#110F11" transform="translate(107,17)"/>
<path d="M0 0 C2.875 -0.125 2.875 -0.125 6 0 C8 2 8 2 8.25 5.5 C8 9 8 9 6 11 C3.31160615 11.26991906 0.70858064 11.08737357 -2 11 C-1.67 10.01 -1.34 9.02 -1 8 C0.65 7.67 2.3 7.34 4 7 C4 5.68 4 4.36 4 3 C2.35 2.67 0.7 2.34 -1 2 C-0.67 1.34 -0.34 0.68 0 0 Z " fill="#101110" transform="translate(139,18)"/>
<path d="M0 0 C6.0546875 -0.1953125 6.0546875 -0.1953125 8 0 C10 2 10 2 10.25 5 C10 8 10 8 8 10 C5.8359375 9.9765625 5.8359375 9.9765625 3.375 9.625 C2.14910156 9.45871094 2.14910156 9.45871094 0.8984375 9.2890625 C-0.04128906 9.14597656 -0.04128906 9.14597656 -1 9 C-1 8.67 -1 8.34 -1 8 C1.31 8 3.62 8 6 8 C5.67 6.35 5.34 4.7 5 3 C3.35 2.67 1.7 2.34 0 2 C0 1.34 0 0.68 0 0 Z " fill="#131010" transform="translate(122,18)"/>
<path d="M0 0 C3.69049337 0.75316191 5.45041554 1.93608953 8.0625 4.625 C8.0625 5.615 8.0625 6.605 8.0625 7.625 C5.19525314 7.05155063 4.2010485 6.7635485 2.0625 4.625 C-1.53429066 4.94826553 -1.53429066 4.94826553 -4.9375 5.625 C-4.9375 6.285 -4.9375 6.945 -4.9375 7.625 C-5.5975 7.295 -6.2575 6.965 -6.9375 6.625 C-3.78519539 0.80536072 -3.78519539 0.80536072 0 0 Z " fill="#1C1B1E" transform="translate(91.9375,16.375)"/>
<path d="M0 0 C0.99 0.66 1.98 1.32 3 2 C3 2.99 3 3.98 3 5 C1.01432292 4.70703125 -0.97135417 4.4140625 -2.95703125 4.12109375 C-5.2025342 3.86095201 -5.2025342 3.86095201 -8 5 C-8 3.68 -8 2.36 -8 1 C-5.22899606 -0.38550197 -3.0665294 -0.1877467 0 0 Z " fill="#0F0C0E" transform="translate(64,17)"/>
<path d="M0 0 C0.66 0.33 1.32 0.66 2 1 C1.01 2.32 0.02 3.64 -1 5 C-0.67 4.67 -0.34 4.34 0 4 C1.10844919 7.32534757 0.84454356 9.62182575 0 13 C-0.99 12.67 -1.98 12.34 -3 12 C-3.36923077 4.61538462 -3.36923077 4.61538462 -1.5 1.5 C-1.005 1.005 -0.51 0.51 0 0 Z " fill="#0F0A0E" transform="translate(87,18)"/>
<path d="M0 0 C0 0.99 0 1.98 0 3 C-1.258125 3.04125 -2.51625 3.0825 -3.8125 3.125 C-4.52019531 3.14820313 -5.22789063 3.17140625 -5.95703125 3.1953125 C-8 3 -8 3 -11 1 C-7.27569643 0.30710631 -3.78916254 -0.11144596 0 0 Z " fill="#0F0F0F" transform="translate(82,17)"/>
<path d="M0 0 C0 0.66 0 1.32 0 2 C-4.95 3.485 -4.95 3.485 -10 5 C-5 -1.5 -5 -1.5 0 0 Z " fill="#030306" transform="translate(28,16)"/>
<path d="M0 0 C1.9375 0.75 1.9375 0.75 4 2 C4.75 4.125 4.75 4.125 5 6 C3.125 5.6875 3.125 5.6875 1 5 C0.34 4.01 -0.32 3.02 -1 2 C-0.67 1.34 -0.34 0.68 0 0 Z " fill="#110E11" transform="translate(95,18)"/>
<path d="M0 0 C1.99954746 -0.04254356 4.00041636 -0.04080783 6 0 C7 1 7 1 7.0625 4.0625 C7.041875 5.031875 7.02125 6.00125 7 7 C6.67 5.68 6.34 4.36 6 3 C3.69 2.67 1.38 2.34 -1 2 C-0.67 1.34 -0.34 0.68 0 0 Z " fill="#1D1E1E" transform="translate(139,18)"/>
<path d="M0 0 C1.485 0.99 1.485 0.99 3 2 C3.1875 5.125 3.1875 5.125 3 8 C2.01 8 1.02 8 0 8 C0 5.36 0 2.72 0 0 Z " fill="#050605" transform="translate(119,27)"/>
<path d="" fill="#000000" transform="translate(0,0)"/>
</svg>
